<?xml version="1.0" encoding="UTF-8" standalone="no"?>
<!-- Created with Inkscape (http://www.inkscape.org/) -->

<svg width="12.86879mm" height="12.86879mm" viewBox="0 0 12.86879 12.86879" version="1.1" id="svg5" inkscape:version="1.1.2 (0a00cf5339, 2022-02-04)" sodipodi:docname="tooltip.svg" xmlns:inkscape="http://www.inkscape.org/namespaces/inkscape" xmlns:sodipodi="http://sodipodi.sourceforge.net/DTD/sodipodi-0.dtd" xmlns="http://www.w3.org/2000/svg" xmlns:svg="http://www.w3.org/2000/svg">
  <sodipodi:namedview id="namedview7" pagecolor="#ffffff" bordercolor="#666666" borderopacity="1.0" inkscape:pageshadow="2" inkscape:pageopacity="0.0" inkscape:pagecheckerboard="0" inkscape:document-units="mm" showgrid="false" fit-margin-top="0" fit-margin-left="0" fit-margin-right="0" fit-margin-bottom="0" inkscape:zoom="17.597674" inkscape:cx="23.838378" inkscape:cy="30.003966" inkscape:window-width="2560" inkscape:window-height="1371" inkscape:window-x="0" inkscape:window-y="32" inkscape:window-maximized="1" inkscape:current-layer="layer1"></sodipodi:namedview>
  <defs id="defs2"></defs>
  <g inkscape:label="Layer 1" inkscape:groupmode="layer" id="layer1" transform="translate(-54.356891,-72.177421)">
    <path style="color: #000; fill: #bde3ff; stroke-width: .565px; -inkscape-stroke: none" d="m 66.943182,78.611816 a 6.151895,6.151895 0 0 1 -6.151896,6.151895 6.151895,6.151895 0 0 1 -6.151895,-6.151895 6.151895,6.151895 0 0 1 6.151895,-6.151895 6.151895,6.151895 0 0 1 6.151896,6.151895 z" id="path26060"></path>
    <path style="color: #000; fill: #000; -inkscape-stroke: none" d="m 60.791016,72.177734 c -3.550269,0 -6.433594,2.883326 -6.433594,6.433594 0,3.550269 2.883325,6.435547 6.433594,6.435547 3.550269,10e-7 6.435547,-2.885278 6.435546,-6.435547 10e-7,-3.550269 -2.885277,-6.433594 -6.435546,-6.433594 z m 0,0.564453 c 3.24492,0 5.86914,2.624221 5.86914,5.869141 0,3.244921 -2.62422,5.869141 -5.86914,5.869141 -3.244921,0 -5.869141,-2.624221 -5.869141,-5.869141 0,-3.24492 2.62422,-5.869141 5.869141,-5.869141 z" id="path26062"></path>
    <g aria-label="i" id="text3488" style="-inkscape-font-specification: &quot;Times New Roman, Italic&quot;; stroke-width: .287463px; font-family: Times New Roman; font-size: 11.4985px; font-style: italic; line-height: 1.25">
      <path d="m 61.544544,74.758644 q 0.23581,0 0.39863,0.162821 0.162821,0.16282 0.162821,0.398629 0,0.230195 -0.168435,0.39863 -0.162821,0.162821 -0.393016,0.162821 -0.230194,0 -0.398629,-0.162821 -0.162821,-0.168435 -0.162821,-0.39863 0,-0.235809 0.162821,-0.398629 0.16282,-0.162821 0.398629,-0.162821 z m 0.07299,2.228957 -1.111671,3.935766 q -0.11229,0.39863 -0.11229,0.477233 0,0.08983 0.05053,0.145977 0.05615,0.05615 0.129134,0.05615 0.08422,0 0.202122,-0.08983 0.320026,-0.252653 0.645667,-0.718656 l 0.196508,0.129133 q -0.381786,0.583908 -0.89832,0.982538 -0.381786,0.297569 -0.729886,0.297569 -0.230194,0 -0.376171,-0.134748 -0.145977,-0.140363 -0.145977,-0.3481 0,-0.207736 0.140362,-0.690583 l 0.729886,-2.515297 q 0.179664,-0.617595 0.179664,-0.774801 0,-0.123519 -0.08983,-0.202122 -0.08422,-0.0786 -0.23581,-0.0786 -0.123519,0 -0.510919,0.06176 v -0.218966 z" id="path26034"></path>
    </g>
  </g>
</svg>
