<svg width="48.638" height="48.638" viewBox="0 0 12.869 12.869" version="1.1" id="svg5" xmlns="http://www.w3.org/2000/svg"><g id="layer1" transform="translate(-54.357 -72.177)"><path style="color:#000;fill:#bde3ff;stroke-width:.565px;-inkscape-stroke:none" d="M66.943 78.612a6.152 6.152 0 0 1-6.152 6.152 6.152 6.152 0 0 1-6.152-6.152 6.152 6.152 0 0 1 6.152-6.152 6.152 6.152 0 0 1 6.152 6.152z" id="path26060"/><path style="color:#000;fill:#000;-inkscape-stroke:none" d="M60.791 72.178a6.437 6.437 0 0 0-6.434 6.433 6.439 6.439 0 0 0 6.434 6.436 6.44 6.44 0 0 0 6.436-6.436 6.439 6.439 0 0 0-6.436-6.433zm0 .564a5.865 5.865 0 0 1 5.87 5.87 5.865 5.865 0 0 1-5.87 5.868 5.865 5.865 0 0 1-5.87-5.869 5.865 5.865 0 0 1 5.87-5.869z" id="path26062"/><g aria-label="i" id="text3488" style="-inkscape-font-specification:&quot;Times New Roman, Italic&quot;;stroke-width:.287463px;font-family:Times New Roman;font-size:11.4985px;font-style:italic;line-height:1.25"><path d="M61.545 74.759q.235 0 .398.162.163.163.163.4 0 .23-.168.398-.163.163-.393.163t-.4-.163q-.162-.169-.162-.399 0-.236.163-.399.163-.162.399-.162zm.073 2.229-1.112 3.935q-.112.399-.112.478 0 .09.05.146.056.056.13.056.083 0 .201-.09.32-.253.646-.719l.197.13q-.382.583-.899.982-.382.297-.73.297-.23 0-.376-.134-.146-.14-.146-.348 0-.208.14-.691l.73-2.515q.18-.618.18-.775 0-.124-.09-.202-.084-.079-.236-.079-.123 0-.51.062v-.219z" id="path26034"/></g></g></svg>